<svg width="31" height="41" viewBox="0 0 31 41" fill="none" xmlns="http://www.w3.org/2000/svg">
<path d="M29.2531 28.0684C30.2234 27.0981 30.1081 22.0075 30.1081 22.0075C30.1081 18.8997 29.1758 7.47392 27.8553 4.98626C26.5348 2.4986 19.1506 0.401886 15.4986 0.401886C11.8465 0.401886 4.46091 2.50001 3.14185 4.98626C1.82138 7.47532 0.889033 18.8969 0.889033 22.0047C0.889033 22.0047 0.772314 27.0953 1.74263 28.0684C2.38247 28.7083 4.84341 30.2903 6.89372 31.4758L1.62872 40.5953H4.87716L5.82356 38.957H25.1708L26.1172 40.5967H29.3684L24.1034 31.4772C26.1537 30.2931 28.6147 28.7097 29.2545 28.0699L29.2531 28.0684ZM26.4968 21.618C26.2583 21.6188 26.0249 21.5488 25.8262 21.4169C25.6274 21.285 25.4723 21.0971 25.3804 20.8769C25.2886 20.6568 25.2641 20.4144 25.3101 20.1803C25.3561 19.9463 25.4706 19.7311 25.639 19.5622C25.8073 19.3932 26.0221 19.278 26.256 19.2311C26.4898 19.1843 26.7324 19.2079 26.9528 19.299C27.1733 19.3901 27.3618 19.5446 27.4944 19.7428C27.627 19.9411 27.6978 20.1743 27.6978 20.4128C27.6978 20.5708 27.6666 20.7273 27.6061 20.8733C27.5456 21.0192 27.4569 21.1518 27.3451 21.2635C27.2333 21.3752 27.1006 21.4637 26.9546 21.524C26.8085 21.5844 26.652 21.6154 26.494 21.6152L26.4968 21.618ZM21.7156 7.78611H27.0172C27.4742 9.98548 27.882 13.383 28.1506 16.4106H21.7184V7.78751L21.7156 7.78611ZM13.2739 2.39314H17.7261V4.26767H13.2739V2.39314ZM3.98559 7.78751H9.28435V16.412H2.85075C3.11794 13.383 3.52575 9.98689 3.98559 7.78751ZM4.50591 21.618C4.3413 21.6294 4.17609 21.6069 4.02055 21.5519C3.865 21.4968 3.72244 21.4104 3.60171 21.2979C3.48098 21.1854 3.38467 21.0493 3.31875 20.898C3.25283 20.7468 3.21872 20.5836 3.21853 20.4185C3.21833 20.2535 3.25207 20.0903 3.31763 19.9388C3.38319 19.7874 3.47919 19.6511 3.59965 19.5383C3.72012 19.4256 3.86248 19.3388 4.01789 19.2833C4.17331 19.2279 4.33846 19.205 4.5031 19.2161C4.80389 19.241 5.08436 19.378 5.28893 19.5999C5.49349 19.8218 5.60722 20.1125 5.60757 20.4143C5.60792 20.7162 5.49488 21.0071 5.29084 21.2295C5.08679 21.4519 4.80665 21.5896 4.50591 21.6152V21.618ZM6.13716 20.4128C6.13707 20.2547 6.16813 20.098 6.22857 19.9518C6.28902 19.8057 6.37766 19.6728 6.48944 19.5609C6.60121 19.449 6.73394 19.3602 6.88004 19.2996C7.02613 19.239 7.18274 19.2078 7.34091 19.2077C7.49908 19.2076 7.65572 19.2386 7.80189 19.2991C7.94805 19.3595 8.08088 19.4482 8.19279 19.5599C8.3047 19.6717 8.3935 19.8045 8.45411 19.9505C8.51473 20.0966 8.54597 20.2532 8.54606 20.4114C8.54625 20.731 8.41946 21.0377 8.19358 21.2638C7.9677 21.4899 7.66124 21.6171 7.34161 21.6173C7.18335 21.6174 7.02662 21.5863 6.88036 21.5258C6.73411 21.4653 6.60121 21.3766 6.48923 21.2648C6.26309 21.0389 6.13594 20.7325 6.13575 20.4128H6.13716ZM7.44919 36.1445L8.84138 33.7328H22.1586L23.5508 36.1445H7.44919ZM22.4539 20.4128C22.4443 20.2488 22.4683 20.0846 22.5244 19.9303C22.5806 19.7759 22.6677 19.6346 22.7804 19.5152C22.8932 19.3957 23.0291 19.3005 23.18 19.2355C23.3309 19.1705 23.4934 19.137 23.6577 19.1371C23.8219 19.1372 23.9844 19.1709 24.1352 19.2361C24.286 19.3012 24.4219 19.3966 24.5345 19.5162C24.6471 19.6358 24.734 19.7771 24.79 19.9316C24.846 20.086 24.8698 20.2503 24.86 20.4142C24.8389 20.7189 24.703 21.0042 24.4797 21.2125C24.2564 21.4208 23.9624 21.5366 23.657 21.5364C23.3516 21.5362 23.0577 21.4201 22.8346 21.2115C22.6115 21.003 22.4745 20.7175 22.4539 20.4128Z" fill="white"/>
</svg>
